<?xml version="1.0" standalone="no"?>
<!DOCTYPE svg PUBLIC "-//W3C//DTD SVG 20010904//EN"
 "http://www.w3.org/TR/2001/REC-SVG-20010904/DTD/svg10.dtd">
<svg version="1.0" xmlns="http://www.w3.org/2000/svg"
 width="700.000000pt" height="700.000000pt" viewBox="0 0 700.000000 700.000000"
 preserveAspectRatio="xMidYMid meet">
<metadata>
Created by potrace 1.11, written by Peter Selinger 2001-2013
</metadata>
<g transform="translate(0.000000,700.000000) scale(0.100000,-0.100000)"
fill="#000000" stroke="none">
<path d="M2982 6450 c-110 -14 -236 -46 -329 -84 -173 -71 -342 -213 -413
-348 -18 -35 -39 -70 -47 -79 -7 -9 -20 -52 -29 -95 -27 -144 -74 -467 -74
-517 0 -100 42 -144 188 -197 94 -34 154 -71 170 -103 17 -36 20 -63 8 -79 -7
-9 -77 -39 -156 -66 -80 -28 -185 -64 -235 -82 -136 -48 -484 -147 -617 -175
-145 -31 -406 -51 -450 -36 -43 15 -42 16 -95 -31 -199 -179 -346 -386 -382
-540 -29 -122 4 -579 65 -888 53 -273 115 -457 199 -585 21 -33 76 -97 121
-142 164 -162 337 -207 510 -133 60 26 110 62 229 165 114 98 209 150 291 161
107 13 232 -30 323 -112 58 -52 63 -74 34 -165 -13 -43 -32 -69 -92 -129 -63
-63 -96 -86 -193 -135 l-117 -59 -144 -6 c-133 -6 -147 -9 -197 -36 -62 -34
-103 -91 -119 -164 -6 -27 -38 -107 -71 -180 -34 -72 -70 -166 -81 -207 -25
-100 -25 -260 0 -435 11 -73 27 -191 35 -263 27 -224 69 -317 166 -368 l54
-29 291 11 c453 17 762 46 1104 102 216 35 344 74 427 127 146 95 241 264 273
487 7 44 19 103 28 130 10 28 17 82 17 120 1 131 -59 212 -233 318 -137 83
-265 223 -295 324 -11 35 59 103 144 142 66 31 128 48 422 116 179 42 237 28
287 -68 31 -62 30 -156 -4 -311 -79 -362 -18 -572 210 -725 246 -164 504 -148
1000 64 94 40 244 103 333 139 329 134 353 151 479 343 252 383 301 570 202
771 -18 36 -81 123 -146 200 -199 238 -291 392 -333 557 -22 85 -22 82 23 173
25 51 88 77 210 86 168 13 205 49 366 357 115 222 134 283 135 439 1 105 -3
137 -22 200 -51 160 -179 369 -285 466 -91 82 -154 109 -252 109 -95 0 -154
-26 -222 -97 -59 -60 -88 -126 -123 -272 -16 -70 -37 -141 -46 -159 -53 -104
-150 -137 -230 -79 -148 108 -208 253 -304 729 -70 347 -144 658 -166 691 -21
32 -65 29 -106 -7 -67 -58 -585 -358 -695 -402 -137 -55 -278 -46 -346 22 -26
27 -29 35 -25 77 5 49 21 85 106 242 91 169 103 282 43 405 -62 126 -233 250
-408 296 -91 24 -297 33 -411 19z m383 -154 c198 -54 341 -191 338 -326 -1
-64 -17 -105 -84 -217 -70 -115 -97 -180 -105 -245 -18 -154 80 -260 267 -289
126 -19 229 0 369 71 78 39 384 214 493 282 70 43 97 55 97 44 0 -1 18 -79 39
-172 22 -93 62 -284 91 -424 81 -404 146 -567 277 -696 138 -136 302 -146 432
-28 65 58 88 109 131 280 42 168 61 205 130 252 102 69 259 -27 383 -236 74
-126 99 -200 104 -317 4 -85 2 -108 -16 -156 -55 -144 -122 -186 -318 -201
-203 -15 -273 -44 -348 -145 -53 -73 -76 -151 -82 -278 -17 -342 84 -611 348
-925 167 -199 227 -300 214 -360 -11 -51 -105 -137 -230 -210 -44 -26 -123
-74 -175 -105 -113 -70 -192 -106 -405 -190 -276 -108 -487 -165 -614 -165
-70 0 -169 19 -210 39 -60 31 -74 53 -69 108 5 50 19 81 111 254 87 162 99
204 100 339 0 82 -5 132 -17 175 -70 236 -221 329 -536 329 -382 0 -813 -167
-985 -382 -152 -190 -160 -409 -24 -639 50 -84 139 -168 281 -265 136 -94 163
-121 178 -177 24 -91 -32 -177 -151 -234 -153 -72 -629 -173 -992 -212 -147
-15 -542 -21 -630 -9 l-46 7 -30 126 c-45 188 -110 571 -112 659 -1 53 5 92
18 127 16 43 23 51 58 62 24 7 68 9 110 6 93 -7 171 10 281 61 287 135 414
294 414 519 0 236 -140 449 -362 551 -98 45 -171 59 -308 60 -105 1 -120 -2
-173 -26 -38 -18 -89 -57 -147 -113 -130 -125 -189 -143 -258 -80 -77 69 -132
212 -177 457 -44 243 -57 418 -52 678 4 227 10 279 43 423 l16 67 92 0 c121 0
246 15 386 46 154 35 501 134 625 179 55 20 213 75 350 122 265 89 329 119
341 156 3 12 13 29 21 38 7 9 21 51 29 92 14 69 14 81 0 130 -30 103 -107 164
-315 248 -109 44 -177 104 -215 190 -24 53 -28 71 -25 138 3 62 10 89 38 146
40 81 133 179 233 243 79 51 229 107 342 127 105 18 347 13 431 -9z m701
-4038 l29 -33 -32 29 c-31 28 -38 36 -30 36 2 0 16 -15 33 -32z m91 -190 c-3
-8 -6 -5 -6 6 -1 11 2 17 5 13 3 -3 4 -12 1 -19z m-50 -420 c-3 -8 -6 -5 -6 6
-1 11 2 17 5 13 3 -3 4 -12 1 -19z m0 -190 c-3 -8 -6 -5 -6 6 -1 11 2 17 5 13
3 -3 4 -12 1 -19z m84 -185 c13 -16 12 -17 -3 -4 -17 13 -22 21 -14 21 2 0 10
-8 17 -17z m50 -50 c13 -16 12 -17 -3 -4 -10 7 -18 15 -18 17 0 8 8 3 21 -13z"/>
</g>
</svg>
