<svg id="bold" enable-background="new 0 0 24 24" height="512" viewBox="0 0 24 24" width="512" xmlns="http://www.w3.org/2000/svg"><path fill="#ffffff" d="m16 15.5h-.5v1h.767c.088-.077.233-.274.233-.5 0-.276-.225-.5-.5-.5z"/><path fill="#ffffff" d="m19.25 0h-14.5c-1.517 0-2.75 1.233-2.75 2.75v18.5c0 1.517 1.233 2.75 2.75 2.75h14.5c1.517 0 2.75-1.233 2.75-2.75v-18.5c0-1.517-1.233-2.75-2.75-2.75zm-11 18.5c.414 0 .75.336.75.75s-.336.75-.75.75h-2.5c-.266 0-.512-.141-.646-.37s-.139-.512-.009-.745l1.881-3.385h-1.226c-.414 0-.75-.336-.75-.75s.336-.75.75-.75h2.5c.266 0 .512.141.646.37s.139.512.009.745l-1.881 3.385zm4 .75c0 .414-.336.75-.75.75s-.75-.336-.75-.75v-4.5c0-.414.336-.75.75-.75s.75.336.75.75zm4.126-1.25h-.876v1.25c0 .414-.336.75-.75.75s-.75-.336-.75-.75v-4.5c0-.414.336-.75.75-.75h1.25c1.103 0 2 .897 2 2 0 1.009-.805 2-1.624 2z"/></svg>